<?xml version="1.0" standalone="no"?><!DOCTYPE svg PUBLIC "-//W3C//DTD SVG 1.1//EN" "http://www.w3.org/Graphics/SVG/1.1/DTD/svg11.dtd"><svg t="1616849393578" class="icon" viewBox="0 0 1024 1024" version="1.1" xmlns="http://www.w3.org/2000/svg" p-id="3067" xmlns:xlink="http://www.w3.org/1999/xlink" width="200" height="200"><defs><style type="text/css"></style></defs><path d="M750.380138 258.401103c-130.153931-130.08331-341.168552-139.758345-482.092138-22.845793l-37.464276-26.306207c-11.440552-8.015448-20.691862-3.213241-20.691862 10.875587v106.001655c0 13.982897 9.321931 18.785103 20.691862 10.840276l70.126345-49.293242c10.20469-7.20331 10.734345-18.149517 2.754207-26.235586 124.186483-96.008828 304.587034-85.486345 416.873931 26.729931a315.321379 315.321379 0 0 1 92.866207 223.796966 313.908966 313.908966 0 0 1-92.442483 223.549793 313.732414 313.732414 0 0 1-223.26731 92.442483l-0.282483-0.035311a315.074207 315.074207 0 0 1-223.761655-92.866207 314.791724 314.791724 0 0 1-65.041655-93.996138 21.080276 21.080276 0 1 0-38.452966 17.231449 358.4 358.4 0 0 0 73.657379 106.601931 356.493241 356.493241 0 0 0 253.563587 105.189517h0.317793c95.620414 0 185.485241-37.217103 253.033931-104.836414 67.61931-67.61931 104.907034-157.590069 104.836414-253.351724s-37.499586-185.732414-105.224828-253.492966z" fill="#656565" p-id="3068"></path><path d="M624.67531 342.016c-18.573241 0-40.854069 13.312-49.681655 29.73131l-75.422896 139.758345-75.458207-139.758345c-8.827586-16.41931-31.108414-29.73131-49.716966-29.73131h-17.372689l105.330758 185.485241h-76.446896v0.564966c0 13.982897 11.29931 25.317517 25.317517 25.317517h65.606621v50.635035h-90.924138v0.600275c0 13.982897 11.29931 25.317517 25.317517 25.317518h65.606621l0.635586 59.038896c0.105931 13.982897 11.369931 23.234207 19.067586 21.821793 13.100138 0 24.046345-11.22869 24.364138-25.282207l1.412414-55.578482h66.206896a25.211586 25.211586 0 0 0 25.246897-25.317518v-0.600275h-91.453793v-50.635035h66.206896a25.211586 25.211586 0 0 0 25.246897-25.352827v-0.529656h-77.011862l105.366069-185.485241h-17.443311z" fill="#656565" p-id="3069"></path></svg>