<?xml version="1.0" standalone="no"?><!DOCTYPE svg PUBLIC "-//W3C//DTD SVG 1.1//EN" "http://www.w3.org/Graphics/SVG/1.1/DTD/svg11.dtd"><svg t="1619090362218" class="icon" viewBox="0 0 1182 1024" version="1.1" xmlns="http://www.w3.org/2000/svg" p-id="1527" xmlns:xlink="http://www.w3.org/1999/xlink" width="230.859375" height="200"><defs><style type="text/css"></style></defs><path d="M749.076321 212.820112H354.89551c-29.749467 0-53.950975-24.201508-53.950976-53.950975v-1.703952l15.020851-105.160941C316.993451 23.15396 340.784332 0 369.881892 0h364.208047c29.096061 0 52.886942 23.15396 53.916506 52.004244l15.020851 105.160941v1.703952c0 29.747968-24.203007 53.950975-53.950975 53.950975z m-400.082449-52.897432a6.003545 6.003545 0 0 0 5.901638 4.94101h394.180811a6.005043 6.005043 0 0 0 5.901637-4.94101l-14.893466-104.267753V53.950975c0-3.305996-2.688557-5.994553-5.994553-5.994553H369.881892c-3.305996 0-5.994553 2.688557-5.994553 5.994553v1.703952l-14.893467 104.267753zM770.350989 485.609731h-436.148676c-13.241967 0-23.978211-10.734745-23.978211-23.978212s10.736244-23.978211 23.978211-23.978211h436.148676c13.243466 0 23.978211 10.734745 23.978211 23.978211s-10.734745 23.978211-23.978211 23.978212zM770.350989 710.42794h-436.148676c-13.241967 0-23.978211-10.734745-23.978211-23.978211s10.736244-23.978211 23.978211-23.978211h436.148676c13.243466 0 23.978211 10.734745 23.978211 23.978211s-10.734745 23.978211-23.978211 23.978211zM1013.307216 401.671005c-93.527013 0-169.346117 75.819104-169.346116 169.346117s75.819104 169.346117 169.346116 169.346116 169.346117-75.819104 169.346117-169.346116-75.819104-169.346117-169.346117-169.346117z m17.002051 266.544793c0 10.345099-8.387878 18.732978-18.732978 18.732978s-18.732978-8.387878-18.732977-18.732978v-1.153951c0-10.345099 8.387878-18.732978 18.732977-18.732978s18.732978 8.387878 18.732978 18.732978v1.153951z m-1.146458-79.791994v13.790469c0 10.345099-8.387878 18.732978-18.732978 18.732978s-18.732978-8.387878-18.732977-18.732978v-26.352054c0-0.173842 0.020981-0.343188 0.025476-0.515532a18.746465 18.746465 0 0 1-0.253269-2.947821c0-10.345099 8.387878-18.732978 18.732977-18.732977 16.850688 0 30.558732-13.706545 30.558732-30.555735 0-16.849189-13.708044-30.558732-30.558732-30.558731a30.627669 30.627669 0 0 0-26.720719 15.711723c-5.038422 9.036788-16.450552 12.278343-25.484343 7.236924-9.036788-5.038422-12.276844-16.449053-7.236923-25.484343 12.014582-21.545921 34.792384-34.931758 59.441985-34.931758 37.507917 0 68.024687 30.515271 68.024687 68.024687-0.001499 30.928895-20.756139 57.083129-49.063916 65.315148z" p-id="1528"></path><path d="M1001.577375 368.061046c-13.241967 0-23.978211-10.734745-23.978211-23.978211v-176.839308c0-28.096469-22.85723-50.953699-50.953699-50.953699H770.148673c-13.241967 0-23.978211-10.734745-23.978212-23.978211s10.736244-23.978211 23.978212-23.978211h156.495294c54.53994 0 98.910121 44.370181 98.910121 98.910121v176.839308c0.001499 13.243466-10.734745 23.978211-23.976713 23.978211zM926.645465 1021.467301h-749.3191c-54.53994 0-98.910121-44.370181-98.910121-98.910121v-755.313653c0-54.53994 44.370181-98.910121 98.910121-98.910121h145.07717c13.241967 0 23.978211 10.734745 23.978211 23.978211s-10.736244 23.978211-23.978211 23.978211h-145.07717c-28.096469 0-50.953699 22.85723-50.953699 50.953699v755.313653c0 28.096469 22.85723 50.953699 50.953699 50.953699h749.3191c28.096469 0 50.953699-22.85723 50.953699-50.953699v-125.885609c0-13.243466 10.736244-23.978211 23.978211-23.978211s23.978211 10.734745 23.978211 23.978211v125.885609c0 54.538441-44.37168 98.910121-98.910121 98.910121z" p-id="1529"></path></svg>